<svg width="46" height="19" viewBox="0 0 46 19" fill="none" xmlns="http://www.w3.org/2000/svg">
<mask id="mask0_201_868" style="mask-type:alpha" maskUnits="userSpaceOnUse" x="-2" y="-3" width="24" height="24">
<rect x="-2" y="-3" width="24" height="24" fill="#D9D9D9"/>
</mask>
<g mask="url(#mask0_201_868)">
<path d="M6.85 14.825L10 12.925L13.15 14.85L12.325 11.25L15.1 8.85L11.45 8.525L10 5.125L8.55 8.5L4.9 8.825L7.675 11.25L6.85 14.825ZM3.825 19L5.45 11.975L0 7.25L7.2 6.625L10 0L12.8 6.625L20 7.25L14.55 11.975L16.175 19L10 15.275L3.825 19Z" fill="#1C1B1F"/>
</g>
<mask id="mask1_201_868" style="mask-type:alpha" maskUnits="userSpaceOnUse" x="24" y="-3" width="24" height="24">
<rect x="24" y="-3" width="24" height="24" fill="#D9D9D9"/>
</mask>
<g mask="url(#mask1_201_868)">
<path d="M32.85 14.825L36 12.925L39.15 14.85L38.325 11.25L41.1 8.85L37.45 8.525L36 5.125L34.55 8.5L30.9 8.825L33.675 11.25L32.85 14.825ZM29.825 19L31.45 11.975L26 7.25L33.2 6.625L36 0L38.8 6.625L46 7.25L40.55 11.975L42.175 19L36 15.275L29.825 19Z" fill="#1C1B1F"/>
</g>
</svg>
