<svg width="30" height="24" viewBox="0 0 30 24" fill="none" xmlns="http://www.w3.org/2000/svg">
<mask id="mask0_252_595" style="mask-type:alpha" maskUnits="userSpaceOnUse" x="-3" y="-6" width="36" height="36">
<rect x="-3" y="-6" width="36" height="36" fill="#D9D9D9"/>
</mask>
<g mask="url(#mask0_252_595)">
<path d="M13.5 19.5H16.5V13.2L18.9 15.6L21 13.5L15 7.5L9 13.5L11.1 15.6L13.5 13.2V19.5ZM3 24C2.175 24 1.46875 23.7063 0.88125 23.1188C0.29375 22.5312 0 21.825 0 21V3C0 2.175 0.29375 1.46875 0.88125 0.88125C1.46875 0.29375 2.175 0 3 0H12L15 3H27C27.825 3 28.5312 3.29375 29.1188 3.88125C29.7063 4.46875 30 5.175 30 6V21C30 21.825 29.7063 22.5312 29.1188 23.1188C28.5312 23.7063 27.825 24 27 24H3ZM3 21H27V6H13.7625L10.7625 3H3V21Z" fill="#03A895"/>
</g>
</svg>
