<svg width="25" height="15" viewBox="0 0 25 15" fill="none" xmlns="http://www.w3.org/2000/svg">
<mask id="mask0_252_396" style="mask-type:alpha" maskUnits="userSpaceOnUse" x="-3" y="-8" width="31" height="31">
<rect x="-2.5" y="-7.5" width="30" height="30" fill="#D9D9D9"/>
</mask>
<g mask="url(#mask0_252_396)">
<path d="M1.75 15L0 13.25L6.625 6.625C7.35417 5.89583 8.23958 5.53125 9.28125 5.53125C10.3229 5.53125 11.2083 5.89583 11.9375 6.625L13.375 8.0625C13.625 8.3125 13.9219 8.4375 14.2656 8.4375C14.6094 8.4375 14.9062 8.3125 15.1562 8.0625L20.7188 2.5H17.5V0H25V7.5H22.5V4.28125L16.9062 9.84375C16.1771 10.5729 15.2917 10.9375 14.25 10.9375C13.2083 10.9375 12.3229 10.5729 11.5938 9.84375L10.125 8.375C9.89583 8.14583 9.60417 8.03125 9.25 8.03125C8.89583 8.03125 8.60417 8.14583 8.375 8.375L1.75 15Z" fill="#03A895"/>
</g>
</svg>
