<svg width="17" height="17" viewBox="0 0 17 17" fill="none" xmlns="http://www.w3.org/2000/svg">
<mask id="mask0_179_245" style="mask-type:alpha" maskUnits="userSpaceOnUse" x="-2" y="-2" width="21" height="21">
<rect x="-1.69995" y="-1.70007" width="20.3999" height="20.3999" fill="#D9D9D9"/>
</mask>
<g mask="url(#mask0_179_245)">
<path d="M8.49996 12.7499C9.67579 12.7499 10.6781 12.3356 11.5068 11.5068C12.3356 10.6781 12.7499 9.67579 12.7499 8.49996C12.7499 7.32413 12.3356 6.32184 11.5068 5.4931C10.6781 4.66435 9.67579 4.24998 8.49996 4.24998C7.32413 4.24998 6.32184 4.66435 5.4931 5.4931C4.66435 6.32184 4.24998 7.32413 4.24998 8.49996C4.24998 9.67579 4.66435 10.6781 5.4931 11.5068C6.32184 12.3356 7.32413 12.7499 8.49996 12.7499ZM8.49996 16.9999C7.32413 16.9999 6.21914 16.7768 5.18497 16.3305C4.15081 15.8843 3.25123 15.2787 2.48624 14.5137C1.72124 13.7487 1.11562 12.8491 0.669372 11.8149C0.223124 10.7808 0 9.67579 0 8.49996C0 7.32413 0.223124 6.21914 0.669372 5.18497C1.11562 4.15081 1.72124 3.25123 2.48624 2.48624C3.25123 1.72124 4.15081 1.11562 5.18497 0.669372C6.21914 0.223124 7.32413 0 8.49996 0C9.67579 0 10.7808 0.223124 11.8149 0.669372C12.8491 1.11562 13.7487 1.72124 14.5137 2.48624C15.2787 3.25123 15.8843 4.15081 16.3305 5.18497C16.7768 6.21914 16.9999 7.32413 16.9999 8.49996C16.9999 9.67579 16.7768 10.7808 16.3305 11.8149C15.8843 12.8491 15.2787 13.7487 14.5137 14.5137C13.7487 15.2787 12.8491 15.8843 11.8149 16.3305C10.7808 16.7768 9.67579 16.9999 8.49996 16.9999ZM8.49996 15.2999C10.3983 15.2999 12.0062 14.6412 13.3237 13.3237C14.6412 12.0062 15.2999 10.3983 15.2999 8.49996C15.2999 6.60163 14.6412 4.99373 13.3237 3.67623C12.0062 2.35874 10.3983 1.69999 8.49996 1.69999C6.60163 1.69999 4.99373 2.35874 3.67623 3.67623C2.35874 4.99373 1.69999 6.60163 1.69999 8.49996C1.69999 10.3983 2.35874 12.0062 3.67623 13.3237C4.99373 14.6412 6.60163 15.2999 8.49996 15.2999Z" fill="#1C1B1F"/>
</g>
</svg>
