<svg width="28" height="28" viewBox="0 0 28 28" fill="none" xmlns="http://www.w3.org/2000/svg">
<path d="M14.0002 2.33325C20.4437 2.33325 25.6668 7.55642 25.6668 13.9999C25.6668 20.4434 20.4437 25.6666 14.0002 25.6666C7.55666 25.6666 2.3335 20.4434 2.3335 13.9999C2.3335 7.55642 7.55666 2.33325 14.0002 2.33325ZM14.1868 18.6666C13.0582 18.6653 11.9416 18.8986 10.9079 19.3517C9.87416 19.8048 8.94591 20.4678 8.182 21.2986C9.83347 22.6189 11.8858 23.3366 14.0002 23.3333C16.2079 23.3364 18.3447 22.554 20.0283 21.1259C19.2685 20.3463 18.3601 19.7269 17.3567 19.3045C16.3534 18.8821 15.2755 18.6652 14.1868 18.6666ZM14.0002 4.66659C12.2643 4.66663 10.5628 5.15078 9.0869 6.06463C7.61103 6.97849 6.41925 8.28583 5.64551 9.83975C4.87176 11.3937 4.54671 13.1326 4.70687 14.8611C4.86703 16.5896 5.50607 18.2391 6.55216 19.6244C7.53259 18.5836 8.7158 17.7547 10.0289 17.1886C11.3419 16.6226 12.757 16.3315 14.1868 16.3333C15.5654 16.3315 16.9308 16.602 18.2045 17.1294C19.4783 17.6567 20.6353 18.4305 21.6092 19.4063C22.6014 18.0099 23.1903 16.3674 23.3112 14.6586C23.4321 12.9499 23.0803 11.2408 22.2946 9.71862C21.5088 8.19645 20.3192 6.9199 18.8562 6.02879C17.3932 5.13769 15.7132 4.66641 14.0002 4.66659ZM14.0002 5.83325C15.2378 5.83325 16.4248 6.32492 17.3 7.20009C18.1752 8.07526 18.6668 9.26224 18.6668 10.4999C18.6668 11.7376 18.1752 12.9246 17.3 13.7998C16.4248 14.6749 15.2378 15.1666 14.0002 15.1666C12.7625 15.1666 11.5755 14.6749 10.7003 13.7998C9.82516 12.9246 9.3335 11.7376 9.3335 10.4999C9.3335 9.26224 9.82516 8.07526 10.7003 7.20009C11.5755 6.32492 12.7625 5.83325 14.0002 5.83325ZM14.0002 8.16659C13.3813 8.16659 12.7878 8.41242 12.3502 8.85C11.9127 9.28759 11.6668 9.88108 11.6668 10.4999C11.6668 11.1188 11.9127 11.7122 12.3502 12.1498C12.7878 12.5874 13.3813 12.8333 14.0002 12.8333C14.619 12.8333 15.2125 12.5874 15.6501 12.1498C16.0877 11.7122 16.3335 11.1188 16.3335 10.4999C16.3335 9.88108 16.0877 9.28759 15.6501 8.85C15.2125 8.41242 14.619 8.16659 14.0002 8.16659Z" fill="black" fill-opacity="0.5"/>
</svg>
