<svg width="52" height="52" viewBox="0 0 52 52" fill="none" xmlns="http://www.w3.org/2000/svg">
<path d="M16.25 4.875C16.25 4.44402 16.4212 4.0307 16.726 3.72595C17.0307 3.4212 17.444 3.25 17.875 3.25H30.875C31.306 3.25 31.7193 3.4212 32.0241 3.72595C32.3288 4.0307 32.5 4.44402 32.5 4.875C32.5 5.30598 32.3288 5.7193 32.0241 6.02405C31.7193 6.3288 31.306 6.5 30.875 6.5H17.875C17.444 6.5 17.0307 6.3288 16.726 6.02405C16.4212 5.7193 16.25 5.30598 16.25 4.875ZM24.375 48.75C29.5467 48.75 34.5066 46.6955 38.1636 43.0386C41.8205 39.3816 43.875 34.4217 43.875 29.25C43.875 24.0783 41.8205 19.1184 38.1636 15.4614C34.5066 11.8045 29.5467 9.75 24.375 9.75C19.2033 9.75 14.2434 11.8045 10.5864 15.4614C6.92946 19.1184 4.875 24.0783 4.875 29.25C4.875 34.4217 6.92946 39.3816 10.5864 43.0386C14.2434 46.6955 19.2033 48.75 24.375 48.75ZM24.375 16.25C24.806 16.25 25.2193 16.4212 25.524 16.726C25.8288 17.0307 26 17.444 26 17.875V30.875C26 31.306 25.8288 31.7193 25.524 32.024C25.2193 32.3288 24.806 32.5 24.375 32.5C23.944 32.5 23.5307 32.3288 23.226 32.024C22.9212 31.7193 22.75 31.306 22.75 30.875V17.875C22.75 17.444 22.9212 17.0307 23.226 16.726C23.5307 16.4212 23.944 16.25 24.375 16.25ZM40.4723 8.5865C40.3224 8.4313 40.143 8.3075 39.9448 8.22233C39.7465 8.13717 39.5333 8.09234 39.3175 8.09047C39.1018 8.08859 38.8878 8.12971 38.6881 8.21141C38.4884 8.29312 38.3069 8.41378 38.1544 8.56636C38.0018 8.71893 37.8811 8.90037 37.7994 9.10007C37.7177 9.29978 37.6766 9.51376 37.6785 9.72953C37.6803 9.94529 37.7252 10.1585 37.8103 10.3568C37.8955 10.555 38.0193 10.7343 38.1745 10.8842L42.7343 15.444C42.8842 15.5992 43.0635 15.723 43.2617 15.8082C43.46 15.8933 43.6732 15.9382 43.889 15.94C44.1047 15.9419 44.3187 15.9008 44.5184 15.8191C44.7181 15.7374 44.8996 15.6167 45.0521 15.4641C45.2047 15.3116 45.3254 15.1301 45.4071 14.9304C45.4888 14.7307 45.5299 14.5167 45.528 14.301C45.5262 14.0852 45.4813 13.872 45.3962 13.6737C45.311 13.4755 45.1872 13.2962 45.032 13.1462L40.4723 8.5865Z" fill="#FF2121"/>
</svg>
